<?xml version="1.0" standalone="no"?>
<!DOCTYPE svg PUBLIC "-//W3C//DTD SVG 20010904//EN"
 "http://www.w3.org/TR/2001/REC-SVG-20010904/DTD/svg10.dtd">
<svg version="1.0" xmlns="http://www.w3.org/2000/svg"
 width="225.000000pt" height="225.000000pt" viewBox="0 0 225.000000 225.000000"
 preserveAspectRatio="xMidYMid meet">
<metadata>
Created by potrace 1.14, written by Peter Selinger 2001-2017
</metadata>
<g transform="translate(0.000000,225.000000) scale(0.100000,-0.100000)"
fill="#000000" stroke="none">
<path d="M933 1443 c-7 -2 -13 -18 -13 -34 0 -25 8 -33 55 -60 30 -17 55 -34
55 -37 0 -4 -16 -17 -36 -30 l-36 -24 -72 36 c-89 44 -147 53 -218 32 -108
-31 -167 -110 -168 -222 0 -112 73 -201 185 -224 75 -16 150 5 268 73 51 30
174 102 275 161 101 59 199 114 217 122 79 32 170 3 205 -66 38 -74 17 -144
-57 -187 -37 -22 -52 -25 -94 -20 -27 3 -76 20 -108 37 -47 25 -58 36 -54 51
3 10 3 19 0 19 -7 0 -280 -159 -290 -169 -5 -5 -7 -29 -5 -54 l3 -47 105 61
c58 34 113 69 123 77 16 14 23 13 80 -16 81 -41 153 -55 218 -41 184 40 246
273 105 397 -33 29 -117 62 -156 62 -63 0 -150 -41 -408 -192 -153 -89 -293
-168 -312 -175 -82 -29 -165 0 -199 71 -26 53 -26 69 0 122 15 31 32 48 63 63
59 29 101 26 183 -13 63 -30 71 -37 66 -57 -7 -25 -29 -36 262 131 154 89 174
110 145 146 -19 22 -40 17 -120 -29 l-74 -44 -77 44 c-75 42 -91 47 -116 36z"/>
</g>
</svg>
